<mxfile host="app.diagrams.net" modified="2020-09-23T16:09:09.245Z" agent="5.0 (Windows NT 10.0; Win64; x64) AppleWebKit/537.36 (KHTML, like Gecko) Chrome/84.0.4147.135 Safari/537.36 OPR/70.0.3728.189" etag="JgZRlMFLhkNpym8T7IUR" version="13.7.3" type="github">
  <diagram id="u0zVZeL-fCIfDyML3wyE" name="Page-1">
    <mxGraphModel dx="1382" dy="1964" grid="1" gridSize="10" guides="1" tooltips="1" connect="1" arrows="1" fold="1" page="1" pageScale="1" pageWidth="827" pageHeight="1169" math="0" shadow="0">
      <root>
        <mxCell id="0" />
        <mxCell id="1" parent="0" />
        <mxCell id="rweDv9cfRNjUbK9W2Be7-40" value="baza macierzysta" style="shape=table;startSize=30;container=1;collapsible=1;childLayout=tableLayout;fixedRows=1;rowLines=0;fontStyle=1;align=center;resizeLast=1;" vertex="1" parent="1">
          <mxGeometry x="20" y="450" width="180" height="130" as="geometry" />
        </mxCell>
        <mxCell id="rweDv9cfRNjUbK9W2Be7-41" value="" style="shape=partialRectangle;collapsible=0;dropTarget=0;pointerEvents=0;fillColor=none;top=0;left=0;bottom=1;right=0;points=[[0,0.5],[1,0.5]];portConstraint=eastwest;" vertex="1" parent="rweDv9cfRNjUbK9W2Be7-40">
          <mxGeometry y="30" width="180" height="30" as="geometry" />
        </mxCell>
        <mxCell id="rweDv9cfRNjUbK9W2Be7-42" value="PK" style="shape=partialRectangle;connectable=0;fillColor=none;top=0;left=0;bottom=0;right=0;fontStyle=1;overflow=hidden;" vertex="1" parent="rweDv9cfRNjUbK9W2Be7-41">
          <mxGeometry width="30" height="30" as="geometry" />
        </mxCell>
        <mxCell id="rweDv9cfRNjUbK9W2Be7-43" value="idbm" style="shape=partialRectangle;connectable=0;fillColor=none;top=0;left=0;bottom=0;right=0;align=left;spacingLeft=6;fontStyle=5;overflow=hidden;" vertex="1" parent="rweDv9cfRNjUbK9W2Be7-41">
          <mxGeometry x="30" width="150" height="30" as="geometry" />
        </mxCell>
        <mxCell id="rweDv9cfRNjUbK9W2Be7-44" value="" style="shape=partialRectangle;collapsible=0;dropTarget=0;pointerEvents=0;fillColor=none;top=0;left=0;bottom=0;right=0;points=[[0,0.5],[1,0.5]];portConstraint=eastwest;" vertex="1" parent="rweDv9cfRNjUbK9W2Be7-40">
          <mxGeometry y="60" width="180" height="30" as="geometry" />
        </mxCell>
        <mxCell id="rweDv9cfRNjUbK9W2Be7-45" value="FK" style="shape=partialRectangle;connectable=0;fillColor=none;top=0;left=0;bottom=0;right=0;editable=1;overflow=hidden;" vertex="1" parent="rweDv9cfRNjUbK9W2Be7-44">
          <mxGeometry width="30" height="30" as="geometry" />
        </mxCell>
        <mxCell id="rweDv9cfRNjUbK9W2Be7-46" value="idc" style="shape=partialRectangle;connectable=0;fillColor=none;top=0;left=0;bottom=0;right=0;align=left;spacingLeft=6;overflow=hidden;" vertex="1" parent="rweDv9cfRNjUbK9W2Be7-44">
          <mxGeometry x="30" width="150" height="30" as="geometry" />
        </mxCell>
        <mxCell id="rweDv9cfRNjUbK9W2Be7-47" value="" style="shape=partialRectangle;collapsible=0;dropTarget=0;pointerEvents=0;fillColor=none;top=0;left=0;bottom=0;right=0;points=[[0,0.5],[1,0.5]];portConstraint=eastwest;" vertex="1" parent="rweDv9cfRNjUbK9W2Be7-40">
          <mxGeometry y="90" width="180" height="30" as="geometry" />
        </mxCell>
        <mxCell id="rweDv9cfRNjUbK9W2Be7-48" value="FK" style="shape=partialRectangle;connectable=0;fillColor=none;top=0;left=0;bottom=0;right=0;editable=1;overflow=hidden;" vertex="1" parent="rweDv9cfRNjUbK9W2Be7-47">
          <mxGeometry width="30" height="30" as="geometry" />
        </mxCell>
        <mxCell id="rweDv9cfRNjUbK9W2Be7-49" value="idp" style="shape=partialRectangle;connectable=0;fillColor=none;top=0;left=0;bottom=0;right=0;align=left;spacingLeft=6;overflow=hidden;" vertex="1" parent="rweDv9cfRNjUbK9W2Be7-47">
          <mxGeometry x="30" width="150" height="30" as="geometry" />
        </mxCell>
        <mxCell id="rweDv9cfRNjUbK9W2Be7-122" value="" style="edgeStyle=orthogonalEdgeStyle;fontSize=12;html=1;endArrow=ERoneToMany;startArrow=ERmandOne;entryX=1;entryY=0;entryDx=0;entryDy=0;exitX=1;exitY=1;exitDx=0;exitDy=0;" edge="1" parent="1" source="rweDv9cfRNjUbK9W2Be7-1" target="rweDv9cfRNjUbK9W2Be7-53">
          <mxGeometry width="100" height="100" relative="1" as="geometry">
            <mxPoint x="680" y="390" as="sourcePoint" />
            <mxPoint x="780" y="290" as="targetPoint" />
            <Array as="points">
              <mxPoint x="930" y="220" />
              <mxPoint x="710" y="220" />
              <mxPoint x="710" y="300" />
              <mxPoint x="930" y="300" />
            </Array>
          </mxGeometry>
        </mxCell>
        <mxCell id="rweDv9cfRNjUbK9W2Be7-123" value="" style="edgeStyle=orthogonalEdgeStyle;fontSize=12;html=1;endArrow=ERoneToMany;startArrow=ERoneToMany;entryX=0;entryY=0.5;entryDx=0;entryDy=0;exitX=1;exitY=0.5;exitDx=0;exitDy=0;" edge="1" parent="1" source="rweDv9cfRNjUbK9W2Be7-37" target="rweDv9cfRNjUbK9W2Be7-60">
          <mxGeometry width="100" height="100" relative="1" as="geometry">
            <mxPoint x="630" y="590" as="sourcePoint" />
            <mxPoint x="730" y="490" as="targetPoint" />
          </mxGeometry>
        </mxCell>
        <mxCell id="rweDv9cfRNjUbK9W2Be7-124" value="" style="edgeStyle=orthogonalEdgeStyle;fontSize=12;html=1;endArrow=ERoneToMany;startArrow=ERoneToMany;entryX=0;entryY=0.5;entryDx=0;entryDy=0;exitX=1;exitY=0.5;exitDx=0;exitDy=0;" edge="1" parent="1" source="rweDv9cfRNjUbK9W2Be7-15" target="rweDv9cfRNjUbK9W2Be7-54">
          <mxGeometry width="100" height="100" relative="1" as="geometry">
            <mxPoint x="600" y="420" as="sourcePoint" />
            <mxPoint x="700" y="320" as="targetPoint" />
          </mxGeometry>
        </mxCell>
        <mxCell id="rweDv9cfRNjUbK9W2Be7-125" value="" style="edgeStyle=orthogonalEdgeStyle;fontSize=12;html=1;endArrow=ERzeroToOne;startArrow=ERmandOne;entryX=0;entryY=0.5;entryDx=0;entryDy=0;exitX=1;exitY=0.5;exitDx=0;exitDy=0;" edge="1" parent="1" source="rweDv9cfRNjUbK9W2Be7-88" target="rweDv9cfRNjUbK9W2Be7-5">
          <mxGeometry width="100" height="100" relative="1" as="geometry">
            <mxPoint x="610" y="90" as="sourcePoint" />
            <mxPoint x="710" y="-10" as="targetPoint" />
            <Array as="points">
              <mxPoint x="510" y="-5" />
              <mxPoint x="510" y="75" />
              <mxPoint x="630" y="75" />
              <mxPoint x="630" y="115" />
            </Array>
          </mxGeometry>
        </mxCell>
        <mxCell id="rweDv9cfRNjUbK9W2Be7-126" value="" style="edgeStyle=orthogonalEdgeStyle;fontSize=12;html=1;endArrow=ERoneToMany;startArrow=ERmandOne;entryX=0;entryY=0.5;entryDx=0;entryDy=0;exitX=1;exitY=0.5;exitDx=0;exitDy=0;" edge="1" parent="1" source="rweDv9cfRNjUbK9W2Be7-41" target="rweDv9cfRNjUbK9W2Be7-28">
          <mxGeometry width="100" height="100" relative="1" as="geometry">
            <mxPoint x="270" y="620" as="sourcePoint" />
            <mxPoint x="370" y="520" as="targetPoint" />
          </mxGeometry>
        </mxCell>
        <mxCell id="rweDv9cfRNjUbK9W2Be7-27" value="pilot" style="shape=table;startSize=30;container=1;collapsible=1;childLayout=tableLayout;fixedRows=1;rowLines=0;fontStyle=1;align=center;resizeLast=1;" vertex="1" parent="1">
          <mxGeometry x="400" y="450" width="180" height="220" as="geometry" />
        </mxCell>
        <mxCell id="rweDv9cfRNjUbK9W2Be7-28" value="" style="shape=partialRectangle;collapsible=0;dropTarget=0;pointerEvents=0;fillColor=none;top=0;left=0;bottom=1;right=0;points=[[0,0.5],[1,0.5]];portConstraint=eastwest;" vertex="1" parent="rweDv9cfRNjUbK9W2Be7-27">
          <mxGeometry y="30" width="180" height="30" as="geometry" />
        </mxCell>
        <mxCell id="rweDv9cfRNjUbK9W2Be7-29" value="PK" style="shape=partialRectangle;connectable=0;fillColor=none;top=0;left=0;bottom=0;right=0;fontStyle=1;overflow=hidden;" vertex="1" parent="rweDv9cfRNjUbK9W2Be7-28">
          <mxGeometry width="30" height="30" as="geometry" />
        </mxCell>
        <mxCell id="rweDv9cfRNjUbK9W2Be7-30" value="idp" style="shape=partialRectangle;connectable=0;fillColor=none;top=0;left=0;bottom=0;right=0;align=left;spacingLeft=6;fontStyle=5;overflow=hidden;" vertex="1" parent="rweDv9cfRNjUbK9W2Be7-28">
          <mxGeometry x="30" width="150" height="30" as="geometry" />
        </mxCell>
        <mxCell id="rweDv9cfRNjUbK9W2Be7-31" value="" style="shape=partialRectangle;collapsible=0;dropTarget=0;pointerEvents=0;fillColor=none;top=0;left=0;bottom=0;right=0;points=[[0,0.5],[1,0.5]];portConstraint=eastwest;" vertex="1" parent="rweDv9cfRNjUbK9W2Be7-27">
          <mxGeometry y="60" width="180" height="30" as="geometry" />
        </mxCell>
        <mxCell id="rweDv9cfRNjUbK9W2Be7-32" value="" style="shape=partialRectangle;connectable=0;fillColor=none;top=0;left=0;bottom=0;right=0;editable=1;overflow=hidden;" vertex="1" parent="rweDv9cfRNjUbK9W2Be7-31">
          <mxGeometry width="30" height="30" as="geometry" />
        </mxCell>
        <mxCell id="rweDv9cfRNjUbK9W2Be7-33" value="imie" style="shape=partialRectangle;connectable=0;fillColor=none;top=0;left=0;bottom=0;right=0;align=left;spacingLeft=6;overflow=hidden;" vertex="1" parent="rweDv9cfRNjUbK9W2Be7-31">
          <mxGeometry x="30" width="150" height="30" as="geometry" />
        </mxCell>
        <mxCell id="rweDv9cfRNjUbK9W2Be7-34" value="" style="shape=partialRectangle;collapsible=0;dropTarget=0;pointerEvents=0;fillColor=none;top=0;left=0;bottom=0;right=0;points=[[0,0.5],[1,0.5]];portConstraint=eastwest;" vertex="1" parent="rweDv9cfRNjUbK9W2Be7-27">
          <mxGeometry y="90" width="180" height="30" as="geometry" />
        </mxCell>
        <mxCell id="rweDv9cfRNjUbK9W2Be7-35" value="" style="shape=partialRectangle;connectable=0;fillColor=none;top=0;left=0;bottom=0;right=0;editable=1;overflow=hidden;" vertex="1" parent="rweDv9cfRNjUbK9W2Be7-34">
          <mxGeometry width="30" height="30" as="geometry" />
        </mxCell>
        <mxCell id="rweDv9cfRNjUbK9W2Be7-36" value="nazwisko" style="shape=partialRectangle;connectable=0;fillColor=none;top=0;left=0;bottom=0;right=0;align=left;spacingLeft=6;overflow=hidden;" vertex="1" parent="rweDv9cfRNjUbK9W2Be7-34">
          <mxGeometry x="30" width="150" height="30" as="geometry" />
        </mxCell>
        <mxCell id="rweDv9cfRNjUbK9W2Be7-37" value="" style="shape=partialRectangle;collapsible=0;dropTarget=0;pointerEvents=0;fillColor=none;top=0;left=0;bottom=0;right=0;points=[[0,0.5],[1,0.5]];portConstraint=eastwest;" vertex="1" parent="rweDv9cfRNjUbK9W2Be7-27">
          <mxGeometry y="120" width="180" height="30" as="geometry" />
        </mxCell>
        <mxCell id="rweDv9cfRNjUbK9W2Be7-38" value="" style="shape=partialRectangle;connectable=0;fillColor=none;top=0;left=0;bottom=0;right=0;editable=1;overflow=hidden;" vertex="1" parent="rweDv9cfRNjUbK9W2Be7-37">
          <mxGeometry width="30" height="30" as="geometry" />
        </mxCell>
        <mxCell id="rweDv9cfRNjUbK9W2Be7-39" value="stopien" style="shape=partialRectangle;connectable=0;fillColor=none;top=0;left=0;bottom=0;right=0;align=left;spacingLeft=6;overflow=hidden;" vertex="1" parent="rweDv9cfRNjUbK9W2Be7-37">
          <mxGeometry x="30" width="150" height="30" as="geometry" />
        </mxCell>
        <mxCell id="rweDv9cfRNjUbK9W2Be7-110" style="shape=partialRectangle;collapsible=0;dropTarget=0;pointerEvents=0;fillColor=none;top=0;left=0;bottom=0;right=0;points=[[0,0.5],[1,0.5]];portConstraint=eastwest;" vertex="1" parent="rweDv9cfRNjUbK9W2Be7-27">
          <mxGeometry y="150" width="180" height="30" as="geometry" />
        </mxCell>
        <mxCell id="rweDv9cfRNjUbK9W2Be7-111" value="FK" style="shape=partialRectangle;connectable=0;fillColor=none;top=0;left=0;bottom=0;right=0;editable=1;overflow=hidden;" vertex="1" parent="rweDv9cfRNjUbK9W2Be7-110">
          <mxGeometry width="30" height="30" as="geometry" />
        </mxCell>
        <mxCell id="rweDv9cfRNjUbK9W2Be7-112" value="idl" style="shape=partialRectangle;connectable=0;fillColor=none;top=0;left=0;bottom=0;right=0;align=left;spacingLeft=6;overflow=hidden;" vertex="1" parent="rweDv9cfRNjUbK9W2Be7-110">
          <mxGeometry x="30" width="150" height="30" as="geometry" />
        </mxCell>
        <mxCell id="rweDv9cfRNjUbK9W2Be7-113" style="shape=partialRectangle;collapsible=0;dropTarget=0;pointerEvents=0;fillColor=none;top=0;left=0;bottom=0;right=0;points=[[0,0.5],[1,0.5]];portConstraint=eastwest;" vertex="1" parent="rweDv9cfRNjUbK9W2Be7-27">
          <mxGeometry y="180" width="180" height="30" as="geometry" />
        </mxCell>
        <mxCell id="rweDv9cfRNjUbK9W2Be7-114" value="FK" style="shape=partialRectangle;connectable=0;fillColor=none;top=0;left=0;bottom=0;right=0;editable=1;overflow=hidden;" vertex="1" parent="rweDv9cfRNjUbK9W2Be7-113">
          <mxGeometry width="30" height="30" as="geometry" />
        </mxCell>
        <mxCell id="rweDv9cfRNjUbK9W2Be7-115" value="idbm" style="shape=partialRectangle;connectable=0;fillColor=none;top=0;left=0;bottom=0;right=0;align=left;spacingLeft=6;overflow=hidden;" vertex="1" parent="rweDv9cfRNjUbK9W2Be7-113">
          <mxGeometry x="30" width="150" height="30" as="geometry" />
        </mxCell>
        <mxCell id="rweDv9cfRNjUbK9W2Be7-127" value="" style="edgeStyle=orthogonalEdgeStyle;fontSize=12;html=1;endArrow=ERoneToMany;startArrow=ERmandOne;entryX=0.5;entryY=0;entryDx=0;entryDy=0;exitX=0.5;exitY=1;exitDx=0;exitDy=0;" edge="1" parent="1" source="rweDv9cfRNjUbK9W2Be7-14" target="rweDv9cfRNjUbK9W2Be7-40">
          <mxGeometry width="100" height="100" relative="1" as="geometry">
            <mxPoint x="100" y="440" as="sourcePoint" />
            <mxPoint x="200" y="340" as="targetPoint" />
          </mxGeometry>
        </mxCell>
        <mxCell id="rweDv9cfRNjUbK9W2Be7-53" value="lot" style="shape=table;startSize=30;container=1;collapsible=1;childLayout=tableLayout;fixedRows=1;rowLines=0;fontStyle=1;align=center;resizeLast=1;" vertex="1" parent="1">
          <mxGeometry x="750" y="335" width="180" height="250" as="geometry" />
        </mxCell>
        <mxCell id="rweDv9cfRNjUbK9W2Be7-54" value="" style="shape=partialRectangle;collapsible=0;dropTarget=0;pointerEvents=0;fillColor=none;top=0;left=0;bottom=1;right=0;points=[[0,0.5],[1,0.5]];portConstraint=eastwest;" vertex="1" parent="rweDv9cfRNjUbK9W2Be7-53">
          <mxGeometry y="30" width="180" height="30" as="geometry" />
        </mxCell>
        <mxCell id="rweDv9cfRNjUbK9W2Be7-55" value="PK" style="shape=partialRectangle;connectable=0;fillColor=none;top=0;left=0;bottom=0;right=0;fontStyle=1;overflow=hidden;" vertex="1" parent="rweDv9cfRNjUbK9W2Be7-54">
          <mxGeometry width="30" height="30" as="geometry" />
        </mxCell>
        <mxCell id="rweDv9cfRNjUbK9W2Be7-56" value="idl" style="shape=partialRectangle;connectable=0;fillColor=none;top=0;left=0;bottom=0;right=0;align=left;spacingLeft=6;fontStyle=5;overflow=hidden;" vertex="1" parent="rweDv9cfRNjUbK9W2Be7-54">
          <mxGeometry x="30" width="150" height="30" as="geometry" />
        </mxCell>
        <mxCell id="rweDv9cfRNjUbK9W2Be7-57" value="" style="shape=partialRectangle;collapsible=0;dropTarget=0;pointerEvents=0;fillColor=none;top=0;left=0;bottom=0;right=0;points=[[0,0.5],[1,0.5]];portConstraint=eastwest;" vertex="1" parent="rweDv9cfRNjUbK9W2Be7-53">
          <mxGeometry y="60" width="180" height="30" as="geometry" />
        </mxCell>
        <mxCell id="rweDv9cfRNjUbK9W2Be7-58" value="" style="shape=partialRectangle;connectable=0;fillColor=none;top=0;left=0;bottom=0;right=0;editable=1;overflow=hidden;" vertex="1" parent="rweDv9cfRNjUbK9W2Be7-57">
          <mxGeometry width="30" height="30" as="geometry" />
        </mxCell>
        <mxCell id="rweDv9cfRNjUbK9W2Be7-59" value="data_s" style="shape=partialRectangle;connectable=0;fillColor=none;top=0;left=0;bottom=0;right=0;align=left;spacingLeft=6;overflow=hidden;" vertex="1" parent="rweDv9cfRNjUbK9W2Be7-57">
          <mxGeometry x="30" width="150" height="30" as="geometry" />
        </mxCell>
        <mxCell id="rweDv9cfRNjUbK9W2Be7-60" value="" style="shape=partialRectangle;collapsible=0;dropTarget=0;pointerEvents=0;fillColor=none;top=0;left=0;bottom=0;right=0;points=[[0,0.5],[1,0.5]];portConstraint=eastwest;" vertex="1" parent="rweDv9cfRNjUbK9W2Be7-53">
          <mxGeometry y="90" width="180" height="30" as="geometry" />
        </mxCell>
        <mxCell id="rweDv9cfRNjUbK9W2Be7-61" value="" style="shape=partialRectangle;connectable=0;fillColor=none;top=0;left=0;bottom=0;right=0;editable=1;overflow=hidden;" vertex="1" parent="rweDv9cfRNjUbK9W2Be7-60">
          <mxGeometry width="30" height="30" as="geometry" />
        </mxCell>
        <mxCell id="rweDv9cfRNjUbK9W2Be7-62" value="data_k" style="shape=partialRectangle;connectable=0;fillColor=none;top=0;left=0;bottom=0;right=0;align=left;spacingLeft=6;overflow=hidden;" vertex="1" parent="rweDv9cfRNjUbK9W2Be7-60">
          <mxGeometry x="30" width="150" height="30" as="geometry" />
        </mxCell>
        <mxCell id="rweDv9cfRNjUbK9W2Be7-63" value="" style="shape=partialRectangle;collapsible=0;dropTarget=0;pointerEvents=0;fillColor=none;top=0;left=0;bottom=0;right=0;points=[[0,0.5],[1,0.5]];portConstraint=eastwest;" vertex="1" parent="rweDv9cfRNjUbK9W2Be7-53">
          <mxGeometry y="120" width="180" height="30" as="geometry" />
        </mxCell>
        <mxCell id="rweDv9cfRNjUbK9W2Be7-64" value="" style="shape=partialRectangle;connectable=0;fillColor=none;top=0;left=0;bottom=0;right=0;editable=1;overflow=hidden;" vertex="1" parent="rweDv9cfRNjUbK9W2Be7-63">
          <mxGeometry width="30" height="30" as="geometry" />
        </mxCell>
        <mxCell id="rweDv9cfRNjUbK9W2Be7-65" value="numer" style="shape=partialRectangle;connectable=0;fillColor=none;top=0;left=0;bottom=0;right=0;align=left;spacingLeft=6;overflow=hidden;" vertex="1" parent="rweDv9cfRNjUbK9W2Be7-63">
          <mxGeometry x="30" width="150" height="30" as="geometry" />
        </mxCell>
        <mxCell id="rweDv9cfRNjUbK9W2Be7-116" style="shape=partialRectangle;collapsible=0;dropTarget=0;pointerEvents=0;fillColor=none;top=0;left=0;bottom=0;right=0;points=[[0,0.5],[1,0.5]];portConstraint=eastwest;" vertex="1" parent="rweDv9cfRNjUbK9W2Be7-53">
          <mxGeometry y="150" width="180" height="30" as="geometry" />
        </mxCell>
        <mxCell id="rweDv9cfRNjUbK9W2Be7-117" value="FK" style="shape=partialRectangle;connectable=0;fillColor=none;top=0;left=0;bottom=0;right=0;editable=1;overflow=hidden;" vertex="1" parent="rweDv9cfRNjUbK9W2Be7-116">
          <mxGeometry width="30" height="30" as="geometry" />
        </mxCell>
        <mxCell id="rweDv9cfRNjUbK9W2Be7-118" value="ids" style="shape=partialRectangle;connectable=0;fillColor=none;top=0;left=0;bottom=0;right=0;align=left;spacingLeft=6;overflow=hidden;" vertex="1" parent="rweDv9cfRNjUbK9W2Be7-116">
          <mxGeometry x="30" width="150" height="30" as="geometry" />
        </mxCell>
        <mxCell id="rweDv9cfRNjUbK9W2Be7-131" style="shape=partialRectangle;collapsible=0;dropTarget=0;pointerEvents=0;fillColor=none;top=0;left=0;bottom=0;right=0;points=[[0,0.5],[1,0.5]];portConstraint=eastwest;" vertex="1" parent="rweDv9cfRNjUbK9W2Be7-53">
          <mxGeometry y="180" width="180" height="30" as="geometry" />
        </mxCell>
        <mxCell id="rweDv9cfRNjUbK9W2Be7-132" value="FK" style="shape=partialRectangle;connectable=0;fillColor=none;top=0;left=0;bottom=0;right=0;editable=1;overflow=hidden;" vertex="1" parent="rweDv9cfRNjUbK9W2Be7-131">
          <mxGeometry width="30" height="30" as="geometry" />
        </mxCell>
        <mxCell id="rweDv9cfRNjUbK9W2Be7-133" value="idc" style="shape=partialRectangle;connectable=0;fillColor=none;top=0;left=0;bottom=0;right=0;align=left;spacingLeft=6;overflow=hidden;" vertex="1" parent="rweDv9cfRNjUbK9W2Be7-131">
          <mxGeometry x="30" width="150" height="30" as="geometry" />
        </mxCell>
        <mxCell id="rweDv9cfRNjUbK9W2Be7-134" style="shape=partialRectangle;collapsible=0;dropTarget=0;pointerEvents=0;fillColor=none;top=0;left=0;bottom=0;right=0;points=[[0,0.5],[1,0.5]];portConstraint=eastwest;" vertex="1" parent="rweDv9cfRNjUbK9W2Be7-53">
          <mxGeometry y="210" width="180" height="30" as="geometry" />
        </mxCell>
        <mxCell id="rweDv9cfRNjUbK9W2Be7-135" value="FK" style="shape=partialRectangle;connectable=0;fillColor=none;top=0;left=0;bottom=0;right=0;editable=1;overflow=hidden;" vertex="1" parent="rweDv9cfRNjUbK9W2Be7-134">
          <mxGeometry width="30" height="30" as="geometry" />
        </mxCell>
        <mxCell id="rweDv9cfRNjUbK9W2Be7-136" value="idp" style="shape=partialRectangle;connectable=0;fillColor=none;top=0;left=0;bottom=0;right=0;align=left;spacingLeft=6;overflow=hidden;" vertex="1" parent="rweDv9cfRNjUbK9W2Be7-134">
          <mxGeometry x="30" width="150" height="30" as="geometry" />
        </mxCell>
        <mxCell id="rweDv9cfRNjUbK9W2Be7-137" value="konserwuje" style="text;html=1;align=center;verticalAlign=middle;resizable=0;points=[];autosize=1;rotation=90;" vertex="1" parent="1">
          <mxGeometry x="500" y="20" width="80" height="20" as="geometry" />
        </mxCell>
        <mxCell id="rweDv9cfRNjUbK9W2Be7-138" value="jest konserwowany" style="text;html=1;align=center;verticalAlign=middle;resizable=0;points=[];autosize=1;" vertex="1" parent="1">
          <mxGeometry x="620" y="120" width="120" height="20" as="geometry" />
        </mxCell>
        <mxCell id="rweDv9cfRNjUbK9W2Be7-1" value="samoloty" style="shape=table;startSize=30;container=1;collapsible=1;childLayout=tableLayout;fixedRows=1;rowLines=0;fontStyle=1;align=center;resizeLast=1;" vertex="1" parent="1">
          <mxGeometry x="750" y="40" width="180" height="130" as="geometry" />
        </mxCell>
        <mxCell id="rweDv9cfRNjUbK9W2Be7-2" value="" style="shape=partialRectangle;collapsible=0;dropTarget=0;pointerEvents=0;fillColor=none;top=0;left=0;bottom=1;right=0;points=[[0,0.5],[1,0.5]];portConstraint=eastwest;" vertex="1" parent="rweDv9cfRNjUbK9W2Be7-1">
          <mxGeometry y="30" width="180" height="30" as="geometry" />
        </mxCell>
        <mxCell id="rweDv9cfRNjUbK9W2Be7-3" value="PK" style="shape=partialRectangle;connectable=0;fillColor=none;top=0;left=0;bottom=0;right=0;fontStyle=1;overflow=hidden;" vertex="1" parent="rweDv9cfRNjUbK9W2Be7-2">
          <mxGeometry width="30" height="30" as="geometry" />
        </mxCell>
        <mxCell id="rweDv9cfRNjUbK9W2Be7-4" value="ids" style="shape=partialRectangle;connectable=0;fillColor=none;top=0;left=0;bottom=0;right=0;align=left;spacingLeft=6;fontStyle=5;overflow=hidden;" vertex="1" parent="rweDv9cfRNjUbK9W2Be7-2">
          <mxGeometry x="30" width="150" height="30" as="geometry" />
        </mxCell>
        <mxCell id="rweDv9cfRNjUbK9W2Be7-5" value="" style="shape=partialRectangle;collapsible=0;dropTarget=0;pointerEvents=0;fillColor=none;top=0;left=0;bottom=0;right=0;points=[[0,0.5],[1,0.5]];portConstraint=eastwest;" vertex="1" parent="rweDv9cfRNjUbK9W2Be7-1">
          <mxGeometry y="60" width="180" height="30" as="geometry" />
        </mxCell>
        <mxCell id="rweDv9cfRNjUbK9W2Be7-6" value="FK" style="shape=partialRectangle;connectable=0;fillColor=none;top=0;left=0;bottom=0;right=0;editable=1;overflow=hidden;" vertex="1" parent="rweDv9cfRNjUbK9W2Be7-5">
          <mxGeometry width="30" height="30" as="geometry" />
        </mxCell>
        <mxCell id="rweDv9cfRNjUbK9W2Be7-7" value="idbk" style="shape=partialRectangle;connectable=0;fillColor=none;top=0;left=0;bottom=0;right=0;align=left;spacingLeft=6;overflow=hidden;" vertex="1" parent="rweDv9cfRNjUbK9W2Be7-5">
          <mxGeometry x="30" width="150" height="30" as="geometry" />
        </mxCell>
        <mxCell id="rweDv9cfRNjUbK9W2Be7-8" value="" style="shape=partialRectangle;collapsible=0;dropTarget=0;pointerEvents=0;fillColor=none;top=0;left=0;bottom=0;right=0;points=[[0,0.5],[1,0.5]];portConstraint=eastwest;" vertex="1" parent="rweDv9cfRNjUbK9W2Be7-1">
          <mxGeometry y="90" width="180" height="30" as="geometry" />
        </mxCell>
        <mxCell id="rweDv9cfRNjUbK9W2Be7-9" value="FK" style="shape=partialRectangle;connectable=0;fillColor=none;top=0;left=0;bottom=0;right=0;editable=1;overflow=hidden;" vertex="1" parent="rweDv9cfRNjUbK9W2Be7-8">
          <mxGeometry width="30" height="30" as="geometry" />
        </mxCell>
        <mxCell id="rweDv9cfRNjUbK9W2Be7-10" value="idl" style="shape=partialRectangle;connectable=0;fillColor=none;top=0;left=0;bottom=0;right=0;align=left;spacingLeft=6;overflow=hidden;" vertex="1" parent="rweDv9cfRNjUbK9W2Be7-8">
          <mxGeometry x="30" width="150" height="30" as="geometry" />
        </mxCell>
        <mxCell id="rweDv9cfRNjUbK9W2Be7-139" value="jest wykonywany" style="text;html=1;align=center;verticalAlign=middle;resizable=0;points=[];autosize=1;" vertex="1" parent="1">
          <mxGeometry x="735" y="200" width="110" height="20" as="geometry" />
        </mxCell>
        <mxCell id="rweDv9cfRNjUbK9W2Be7-140" value="wykonuje" style="text;html=1;align=center;verticalAlign=middle;resizable=0;points=[];autosize=1;rotation=90;" vertex="1" parent="1">
          <mxGeometry x="695" y="250" width="70" height="20" as="geometry" />
        </mxCell>
        <mxCell id="rweDv9cfRNjUbK9W2Be7-141" value="wykonuja" style="text;html=1;align=center;verticalAlign=middle;resizable=0;points=[];autosize=1;rotation=0;" vertex="1" parent="1">
          <mxGeometry x="260" y="90" width="70" height="20" as="geometry" />
        </mxCell>
        <mxCell id="rweDv9cfRNjUbK9W2Be7-142" value="ma zarejestrowanego" style="text;html=1;align=center;verticalAlign=middle;resizable=0;points=[];autosize=1;" vertex="1" parent="1">
          <mxGeometry x="235" y="460" width="130" height="20" as="geometry" />
        </mxCell>
        <mxCell id="rweDv9cfRNjUbK9W2Be7-143" value="jest zarejestrowani" style="text;html=1;align=center;verticalAlign=middle;resizable=0;points=[];autosize=1;" vertex="1" parent="1">
          <mxGeometry x="245" y="510" width="110" height="20" as="geometry" />
        </mxCell>
        <mxCell id="rweDv9cfRNjUbK9W2Be7-144" value="jest wykonywany przez" style="text;html=1;align=center;verticalAlign=middle;resizable=0;points=[];autosize=1;rotation=90;" vertex="1" parent="1">
          <mxGeometry x="620" y="510" width="140" height="20" as="geometry" />
        </mxCell>
        <mxCell id="rweDv9cfRNjUbK9W2Be7-145" value="wykonuje" style="text;html=1;align=center;verticalAlign=middle;resizable=0;points=[];autosize=1;rotation=-90;" vertex="1" parent="1">
          <mxGeometry x="605" y="500" width="70" height="20" as="geometry" />
        </mxCell>
        <mxCell id="rweDv9cfRNjUbK9W2Be7-146" value="jest wykonywany" style="text;html=1;align=center;verticalAlign=middle;resizable=0;points=[];autosize=1;" vertex="1" parent="1">
          <mxGeometry x="545" y="380" width="110" height="20" as="geometry" />
        </mxCell>
        <mxCell id="rweDv9cfRNjUbK9W2Be7-147" value="ma ich zarejestrowanych" style="text;html=1;align=center;verticalAlign=middle;resizable=0;points=[];autosize=1;rotation=90;" vertex="1" parent="1">
          <mxGeometry x="60" y="350" width="150" height="20" as="geometry" />
        </mxCell>
        <mxCell id="rweDv9cfRNjUbK9W2Be7-14" value="czlonkowie zalogi" style="shape=table;startSize=30;container=1;collapsible=1;childLayout=tableLayout;fixedRows=1;rowLines=0;fontStyle=1;align=center;resizeLast=1;" vertex="1" parent="1">
          <mxGeometry x="20" y="70" width="180" height="190" as="geometry" />
        </mxCell>
        <mxCell id="rweDv9cfRNjUbK9W2Be7-15" value="" style="shape=partialRectangle;collapsible=0;dropTarget=0;pointerEvents=0;fillColor=none;top=0;left=0;bottom=1;right=0;points=[[0,0.5],[1,0.5]];portConstraint=eastwest;" vertex="1" parent="rweDv9cfRNjUbK9W2Be7-14">
          <mxGeometry y="30" width="180" height="30" as="geometry" />
        </mxCell>
        <mxCell id="rweDv9cfRNjUbK9W2Be7-16" value="PK" style="shape=partialRectangle;connectable=0;fillColor=none;top=0;left=0;bottom=0;right=0;fontStyle=1;overflow=hidden;" vertex="1" parent="rweDv9cfRNjUbK9W2Be7-15">
          <mxGeometry width="30" height="30" as="geometry" />
        </mxCell>
        <mxCell id="rweDv9cfRNjUbK9W2Be7-17" value="idc" style="shape=partialRectangle;connectable=0;fillColor=none;top=0;left=0;bottom=0;right=0;align=left;spacingLeft=6;fontStyle=5;overflow=hidden;" vertex="1" parent="rweDv9cfRNjUbK9W2Be7-15">
          <mxGeometry x="30" width="150" height="30" as="geometry" />
        </mxCell>
        <mxCell id="rweDv9cfRNjUbK9W2Be7-18" value="" style="shape=partialRectangle;collapsible=0;dropTarget=0;pointerEvents=0;fillColor=none;top=0;left=0;bottom=0;right=0;points=[[0,0.5],[1,0.5]];portConstraint=eastwest;" vertex="1" parent="rweDv9cfRNjUbK9W2Be7-14">
          <mxGeometry y="60" width="180" height="30" as="geometry" />
        </mxCell>
        <mxCell id="rweDv9cfRNjUbK9W2Be7-19" value="" style="shape=partialRectangle;connectable=0;fillColor=none;top=0;left=0;bottom=0;right=0;editable=1;overflow=hidden;" vertex="1" parent="rweDv9cfRNjUbK9W2Be7-18">
          <mxGeometry width="30" height="30" as="geometry" />
        </mxCell>
        <mxCell id="rweDv9cfRNjUbK9W2Be7-20" value="imie" style="shape=partialRectangle;connectable=0;fillColor=none;top=0;left=0;bottom=0;right=0;align=left;spacingLeft=6;overflow=hidden;" vertex="1" parent="rweDv9cfRNjUbK9W2Be7-18">
          <mxGeometry x="30" width="150" height="30" as="geometry" />
        </mxCell>
        <mxCell id="rweDv9cfRNjUbK9W2Be7-128" style="shape=partialRectangle;collapsible=0;dropTarget=0;pointerEvents=0;fillColor=none;top=0;left=0;bottom=0;right=0;points=[[0,0.5],[1,0.5]];portConstraint=eastwest;" vertex="1" parent="rweDv9cfRNjUbK9W2Be7-14">
          <mxGeometry y="90" width="180" height="30" as="geometry" />
        </mxCell>
        <mxCell id="rweDv9cfRNjUbK9W2Be7-129" style="shape=partialRectangle;connectable=0;fillColor=none;top=0;left=0;bottom=0;right=0;editable=1;overflow=hidden;" vertex="1" parent="rweDv9cfRNjUbK9W2Be7-128">
          <mxGeometry width="30" height="30" as="geometry" />
        </mxCell>
        <mxCell id="rweDv9cfRNjUbK9W2Be7-130" value="nazwisko" style="shape=partialRectangle;connectable=0;fillColor=none;top=0;left=0;bottom=0;right=0;align=left;spacingLeft=6;overflow=hidden;" vertex="1" parent="rweDv9cfRNjUbK9W2Be7-128">
          <mxGeometry x="30" width="150" height="30" as="geometry" />
        </mxCell>
        <mxCell id="rweDv9cfRNjUbK9W2Be7-21" value="" style="shape=partialRectangle;collapsible=0;dropTarget=0;pointerEvents=0;fillColor=none;top=0;left=0;bottom=0;right=0;points=[[0,0.5],[1,0.5]];portConstraint=eastwest;" vertex="1" parent="rweDv9cfRNjUbK9W2Be7-14">
          <mxGeometry y="120" width="180" height="30" as="geometry" />
        </mxCell>
        <mxCell id="rweDv9cfRNjUbK9W2Be7-22" value="FK" style="shape=partialRectangle;connectable=0;fillColor=none;top=0;left=0;bottom=0;right=0;editable=1;overflow=hidden;" vertex="1" parent="rweDv9cfRNjUbK9W2Be7-21">
          <mxGeometry width="30" height="30" as="geometry" />
        </mxCell>
        <mxCell id="rweDv9cfRNjUbK9W2Be7-23" value="idl" style="shape=partialRectangle;connectable=0;fillColor=none;top=0;left=0;bottom=0;right=0;align=left;spacingLeft=6;overflow=hidden;" vertex="1" parent="rweDv9cfRNjUbK9W2Be7-21">
          <mxGeometry x="30" width="150" height="30" as="geometry" />
        </mxCell>
        <mxCell id="rweDv9cfRNjUbK9W2Be7-24" value="" style="shape=partialRectangle;collapsible=0;dropTarget=0;pointerEvents=0;fillColor=none;top=0;left=0;bottom=0;right=0;points=[[0,0.5],[1,0.5]];portConstraint=eastwest;" vertex="1" parent="rweDv9cfRNjUbK9W2Be7-14">
          <mxGeometry y="150" width="180" height="30" as="geometry" />
        </mxCell>
        <mxCell id="rweDv9cfRNjUbK9W2Be7-25" value="FK" style="shape=partialRectangle;connectable=0;fillColor=none;top=0;left=0;bottom=0;right=0;editable=1;overflow=hidden;" vertex="1" parent="rweDv9cfRNjUbK9W2Be7-24">
          <mxGeometry width="30" height="30" as="geometry" />
        </mxCell>
        <mxCell id="rweDv9cfRNjUbK9W2Be7-26" value="idbm" style="shape=partialRectangle;connectable=0;fillColor=none;top=0;left=0;bottom=0;right=0;align=left;spacingLeft=6;overflow=hidden;" vertex="1" parent="rweDv9cfRNjUbK9W2Be7-24">
          <mxGeometry x="30" width="150" height="30" as="geometry" />
        </mxCell>
        <mxCell id="rweDv9cfRNjUbK9W2Be7-87" value="baza konserwacyjna" style="shape=table;startSize=30;container=1;collapsible=1;childLayout=tableLayout;fixedRows=1;rowLines=0;fontStyle=1;align=center;resizeLast=1;" vertex="1" parent="1">
          <mxGeometry x="290" y="-50" width="180" height="100" as="geometry" />
        </mxCell>
        <mxCell id="rweDv9cfRNjUbK9W2Be7-88" value="" style="shape=partialRectangle;collapsible=0;dropTarget=0;pointerEvents=0;fillColor=none;top=0;left=0;bottom=1;right=0;points=[[0,0.5],[1,0.5]];portConstraint=eastwest;" vertex="1" parent="rweDv9cfRNjUbK9W2Be7-87">
          <mxGeometry y="30" width="180" height="30" as="geometry" />
        </mxCell>
        <mxCell id="rweDv9cfRNjUbK9W2Be7-89" value="PK" style="shape=partialRectangle;connectable=0;fillColor=none;top=0;left=0;bottom=0;right=0;fontStyle=1;overflow=hidden;" vertex="1" parent="rweDv9cfRNjUbK9W2Be7-88">
          <mxGeometry width="30" height="30" as="geometry" />
        </mxCell>
        <mxCell id="rweDv9cfRNjUbK9W2Be7-90" value="idbk" style="shape=partialRectangle;connectable=0;fillColor=none;top=0;left=0;bottom=0;right=0;align=left;spacingLeft=6;fontStyle=5;overflow=hidden;" vertex="1" parent="rweDv9cfRNjUbK9W2Be7-88">
          <mxGeometry x="30" width="150" height="30" as="geometry" />
        </mxCell>
        <mxCell id="rweDv9cfRNjUbK9W2Be7-91" value="" style="shape=partialRectangle;collapsible=0;dropTarget=0;pointerEvents=0;fillColor=none;top=0;left=0;bottom=0;right=0;points=[[0,0.5],[1,0.5]];portConstraint=eastwest;" vertex="1" parent="rweDv9cfRNjUbK9W2Be7-87">
          <mxGeometry y="60" width="180" height="30" as="geometry" />
        </mxCell>
        <mxCell id="rweDv9cfRNjUbK9W2Be7-92" value="FK" style="shape=partialRectangle;connectable=0;fillColor=none;top=0;left=0;bottom=0;right=0;editable=1;overflow=hidden;" vertex="1" parent="rweDv9cfRNjUbK9W2Be7-91">
          <mxGeometry width="30" height="30" as="geometry" />
        </mxCell>
        <mxCell id="rweDv9cfRNjUbK9W2Be7-93" value="ids" style="shape=partialRectangle;connectable=0;fillColor=none;top=0;left=0;bottom=0;right=0;align=left;spacingLeft=6;overflow=hidden;" vertex="1" parent="rweDv9cfRNjUbK9W2Be7-91">
          <mxGeometry x="30" width="150" height="30" as="geometry" />
        </mxCell>
        <mxCell id="rweDv9cfRNjUbK9W2Be7-148" value="sa zarejestrowani" style="text;html=1;align=center;verticalAlign=middle;resizable=0;points=[];autosize=1;rotation=-90;" vertex="1" parent="1">
          <mxGeometry x="30" y="350" width="110" height="20" as="geometry" />
        </mxCell>
      </root>
    </mxGraphModel>
  </diagram>
</mxfile>
